<svg width="578" height="167" viewBox="0 0 578 167" fill="none" xmlns="http://www.w3.org/2000/svg">
<path d="M34.944 164H5.76V161.024L14.784 153.92V95.744L4.8 92.384L6.72 88.544H35.904V91.52L26.784 98.624V156.704L36.864 160.16L34.944 164ZM104.889 164H86.649V157.088L77.721 164.192C75.673 164.704 73.209 164.96 70.329 164.96C66.105 164.96 62.297 163.872 58.905 161.696C55.577 159.456 52.953 156.448 51.033 152.672C49.177 148.896 48.249 144.736 48.249 140.192C48.249 135.264 49.753 130.656 52.761 126.368C55.769 122.016 59.513 118.56 63.993 116C68.537 113.376 72.921 112.064 77.145 112.064C80.665 112.064 83.865 113.056 86.745 115.04V95.264L78.201 89.312V86.336L94.617 80.192H98.265V156.8L106.809 160.16L104.889 164ZM75.225 156.8C77.145 156.8 78.969 156.544 80.697 156.032C82.489 155.456 84.473 154.4 86.649 152.864V130.976C86.265 127.776 84.761 125.184 82.137 123.2C79.577 121.152 76.057 120.128 71.577 120.128C64.345 120.128 60.729 125.28 60.729 135.584C60.729 141.6 61.977 146.656 64.473 150.752C66.969 154.784 70.553 156.8 75.225 156.8ZM147.329 164.192C144.769 164.704 141.697 164.96 138.113 164.96C133.889 164.96 130.081 163.872 126.689 161.696C123.361 159.456 120.737 156.448 118.817 152.672C116.961 148.896 116.033 144.736 116.033 140.192C116.033 135.264 117.537 130.656 120.545 126.368C123.553 122.016 127.297 118.56 131.777 116C136.321 113.376 140.705 112.064 144.929 112.064C151.009 112.064 155.713 114.464 159.041 119.264C162.433 124.064 164.129 130.4 164.129 138.272H128.609C128.993 143.712 130.465 148.16 133.025 151.616C135.649 155.072 139.201 156.8 143.681 156.8C147.841 156.8 153.761 153.568 161.441 147.104L164.321 150.752L147.329 164.192ZM139.361 120.128C132.449 120.128 128.833 124.864 128.513 134.336H150.977C150.401 130.88 149.793 128.256 149.153 126.464C148.577 124.608 147.521 123.104 145.985 121.952C144.513 120.736 142.305 120.128 139.361 120.128ZM299.63 147.008C299.63 145.024 298.83 143.168 297.23 141.44C295.63 139.712 293.614 138.144 291.182 136.736C288.814 135.264 285.582 133.472 281.486 131.36C276.622 128.8 272.718 126.624 269.774 124.832C266.83 122.976 264.302 120.8 262.19 118.304C260.142 115.808 259.118 113.056 259.118 110.048C259.118 106.848 260.462 103.424 263.15 99.776C265.838 96.064 269.102 92.96 272.942 90.464C276.846 87.904 280.43 86.624 283.694 86.624C287.662 86.624 292.27 87.104 297.518 88.064C302.766 89.024 306.606 90.048 309.038 91.136V109.76H305.39C302.254 104.576 298.798 100.544 295.022 97.664C291.31 94.784 287.406 93.344 283.31 93.344C279.662 93.344 276.75 94.496 274.574 96.8C272.462 99.04 271.406 101.984 271.406 105.632C271.406 107.744 272.206 109.728 273.806 111.584C275.47 113.376 277.486 114.976 279.854 116.384C282.286 117.792 285.646 119.616 289.934 121.856C294.67 124.224 298.51 126.336 301.454 128.192C304.398 129.984 306.862 132.096 308.846 134.528C310.894 136.896 311.918 139.584 311.918 142.592C311.918 145.792 310.478 149.248 307.598 152.96C304.718 156.608 301.198 159.712 297.038 162.272C292.942 164.768 289.198 166.016 285.806 166.016C281.646 166.016 276.686 165.536 270.926 164.576C265.23 163.616 261.134 162.592 258.638 161.504V142.88H262.286C265.55 148.064 269.262 152.096 273.422 154.976C277.582 157.856 281.87 159.296 286.286 159.296C288.91 159.296 291.246 158.72 293.294 157.568C295.342 156.416 296.91 154.912 297.998 153.056C299.086 151.136 299.63 149.12 299.63 147.008ZM351.296 164.192C349.824 164.704 348.032 164.96 345.92 164.96C340.608 164.96 336.704 163.584 334.208 160.832C331.776 158.016 330.56 153.696 330.56 147.872V119.84H320.192V115.904L338.432 94.688H342.08V115.904H359.36V119.84H342.08V149.024C342.08 154.208 344.576 156.8 349.568 156.8C350.912 156.8 352.192 156.512 353.408 155.936C354.688 155.36 356.256 154.336 358.112 152.864L360.992 156.512L351.296 164.192ZM417.734 164H399.494V155.648L388.646 164.192C387.366 164.704 385.766 164.96 383.846 164.96C378.342 164.96 374.342 163.584 371.846 160.832C369.414 158.08 368.198 154.784 368.198 150.944C368.198 148.64 369.03 146.368 370.694 144.128C372.358 141.888 374.726 139.776 377.798 137.792H399.494V131.648C399.494 127.488 398.374 124.544 396.134 122.816C393.958 121.088 390.95 120.224 387.109 120.224C383.142 120.224 378.278 122.624 372.518 127.424L369.638 123.776L383.462 112.832C386.022 112.32 389.094 112.064 392.678 112.064C398.502 112.064 403.014 113.504 406.214 116.384C409.414 119.2 411.014 123.328 411.014 128.768V156.8L419.654 160.16L417.734 164ZM386.918 156.8C390.822 156.8 395.014 155.008 399.494 151.424V141.728H382.502C381.67 142.752 381.062 143.776 380.678 144.8C380.358 145.824 380.198 146.944 380.198 148.16C380.198 150.528 380.806 152.576 382.022 154.304C383.238 155.968 384.87 156.8 386.918 156.8ZM461.999 112.16C464.111 112.16 465.967 112.736 467.567 113.888C469.167 115.04 470.415 116.64 471.311 118.688L464.975 126.656H461.327C461.071 125.056 460.591 123.936 459.887 123.296C459.247 122.592 458.351 122.24 457.199 122.24C455.791 122.24 454.287 122.624 452.687 123.392C451.151 124.096 449.391 125.472 447.406 127.52V156.128L460.847 160.256L458.927 164.096H427.343V161.12L435.887 154.4V127.232L427.343 122.24V119.264L443.759 111.2L446.734 123.008L456.719 112.832C458.063 112.32 459.823 112.064 461.999 112.064V112.16Z" fill="#2F5A2B"/>
<path d="M199.999 153.129L185.456 163.372C184.814 163.85 184.142 164.055 183.441 163.986C182.741 163.918 182.127 163.645 181.602 163.167C181.076 162.689 180.667 162.092 180.375 161.376C180.083 160.661 180.025 159.858 180.2 158.967L184.055 139.609L171.177 126.601C170.593 125.986 170.229 125.286 170.084 124.499C169.939 123.713 169.982 122.945 170.213 122.197C170.445 121.448 170.795 120.834 171.265 120.353C171.734 119.872 172.377 119.565 173.192 119.431L190.187 117.69L196.757 99.4582C197.049 98.6388 197.502 98.0243 198.117 97.6146C198.731 97.2049 199.358 97 199.999 97C200.639 97 201.266 97.2049 201.88 97.6146C202.495 98.0243 202.948 98.6388 203.24 99.4582L209.81 117.69L226.805 119.431C227.623 119.568 228.265 119.875 228.732 120.353C229.2 120.831 229.55 121.446 229.784 122.197C230.017 122.948 230.062 123.717 229.917 124.503C229.772 125.29 229.406 125.989 228.82 126.601L215.942 139.609L219.797 158.967C219.972 159.855 219.914 160.658 219.622 161.376C219.33 162.095 218.921 162.692 218.395 163.167C217.87 163.642 217.256 163.915 216.556 163.986C215.855 164.057 215.183 163.852 214.541 163.372L199.999 153.129Z" fill="#AC7A15"/>
</svg>
